<svg width="23" height="23" viewBox="0 0 23 23" fill="none" xmlns="http://www.w3.org/2000/svg">
<path fill-rule="evenodd" clip-rule="evenodd" d="M11.5 0.25C12.9774 0.249993 14.4403 0.540977 15.8052 1.10634C17.1701 1.6717 18.4103 2.50037 19.455 3.54502C20.4996 4.58968 21.3283 5.82987 21.8937 7.19479C22.459 8.5597 22.75 10.0226 22.75 11.5C22.75 17.7132 17.7132 22.75 11.5 22.75C5.28682 22.75 0.25 17.7132 0.25 11.5C0.25 5.28682 5.28682 0.25 11.5 0.25ZM12.625 12.625H10.375C7.58983 12.625 5.1987 14.3118 4.16737 16.7197C5.79919 19.0079 8.47535 20.5 11.5 20.5C14.5246 20.5 17.2008 19.0079 18.8326 16.7196C17.8013 14.3118 15.4102 12.625 12.625 12.625ZM11.5 3.625C9.63603 3.625 8.12498 5.13605 8.12498 7C8.12498 8.86395 9.63603 10.375 11.5 10.375C13.3639 10.375 14.875 8.86395 14.875 7C14.875 5.13605 13.364 3.625 11.5 3.625Z" fill="black"/>
</svg>
