<svg width="26" height="31" viewBox="0 0 26 31" fill="none" xmlns="http://www.w3.org/2000/svg">
<path opacity="0.5" d="M25.5 12.5832H0.5V25.7082C0.5 26.8685 0.895088 27.9813 1.59835 28.8018C2.30161 29.6222 3.25544 30.0832 4.25 30.0832H21.75C22.7446 30.0832 23.6984 29.6222 24.4016 28.8018C25.1049 27.9813 25.5 26.8685 25.5 25.7082V12.5832ZM6.75 9.6665C6.41848 9.6665 6.10054 9.51286 5.86612 9.23937C5.6317 8.96588 5.5 8.59494 5.5 8.20817V2.37484C5.5 1.98806 5.6317 1.61713 5.86612 1.34364C6.10054 1.07015 6.41848 0.916504 6.75 0.916504C7.08152 0.916504 7.39946 1.07015 7.63388 1.34364C7.8683 1.61713 8 1.98806 8 2.37484V8.20817C8 8.59494 7.8683 8.96588 7.63388 9.23937C7.39946 9.51286 7.08152 9.6665 6.75 9.6665ZM19.25 9.6665C18.9185 9.6665 18.6005 9.51286 18.3661 9.23937C18.1317 8.96588 18 8.59494 18 8.20817V2.37484C18 1.98806 18.1317 1.61713 18.3661 1.34364C18.6005 1.07015 18.9185 0.916504 19.25 0.916504C19.5815 0.916504 19.8995 1.07015 20.1339 1.34364C20.3683 1.61713 20.5 1.98806 20.5 2.37484V8.20817C20.5 8.59494 20.3683 8.96588 20.1339 9.23937C19.8995 9.51286 19.5815 9.6665 19.25 9.6665Z" fill="#B795FF"/>
</svg>
