<svg width="26" height="10" viewBox="0 0 26 10" fill="none" xmlns="http://www.w3.org/2000/svg">
<path d="M21.75 0.833496H20.5V5.2085C20.5 5.59527 20.3683 5.9662 20.1339 6.23969C19.8995 6.51318 19.5815 6.66683 19.25 6.66683C18.9185 6.66683 18.6005 6.51318 18.3661 6.23969C18.1317 5.9662 18 5.59527 18 5.2085V0.833496H8V5.2085C8 5.59527 7.8683 5.9662 7.63388 6.23969C7.39946 6.51318 7.08152 6.66683 6.75 6.66683C6.41848 6.66683 6.10054 6.51318 5.86612 6.23969C5.6317 5.9662 5.5 5.59527 5.5 5.2085V0.833496H4.25C3.25544 0.833496 2.30161 1.29443 1.59835 2.1149C0.895088 2.93538 0.5 4.04817 0.5 5.2085V9.5835H25.5V5.2085C25.5 4.04817 25.1049 2.93538 24.4016 2.1149C23.6984 1.29443 22.7446 0.833496 21.75 0.833496Z" fill="#8B2CF5"/>
</svg>
