<svg width="20" height="21" viewBox="0 0 20 21" fill="none" xmlns="http://www.w3.org/2000/svg">
<path d="M2 20.9996C1.45 20.9996 0.979167 20.8038 0.5875 20.4121C0.195833 20.0204 0 19.5496 0 18.9996V4.99961C0 4.44961 0.195833 3.97878 0.5875 3.58711C0.979167 3.19544 1.45 2.99961 2 2.99961H10.925L8.925 4.99961H2V18.9996H16V12.0496L18 10.0496V18.9996C18 19.5496 17.8042 20.0204 17.4125 20.4121C17.0208 20.8038 16.55 20.9996 16 20.9996H2ZM6 14.9996V10.7496L15.175 1.57461C15.375 1.37461 15.6 1.22461 15.85 1.12461C16.1 1.02461 16.35 0.974609 16.6 0.974609C16.8667 0.974609 17.1208 1.02461 17.3625 1.12461C17.6042 1.22461 17.825 1.37461 18.025 1.57461L19.425 2.99961C19.6083 3.19961 19.75 3.42044 19.85 3.66211C19.95 3.90378 20 4.14961 20 4.39961C20 4.64961 19.9542 4.89544 19.8625 5.13711C19.7708 5.37878 19.625 5.59961 19.425 5.79961L10.25 14.9996H6ZM8 12.9996H9.4L15.2 7.19961L14.5 6.49961L13.775 5.79961L8 11.5746V12.9996Z" fill="white"/>
</svg>
