<?xml version="1.0" standalone="no"?>
<svg viewBox="0 0 200 200" xmlns="http://www.w3.org/2000/svg">
  <path fill="#E8DAFF" d="M29.4,-42.9C42.4,-37.5,60,-36.5,72.1,-27.7C84.2,-19,90.9,-2.5,90,13.9C89.2,30.3,80.9,46.6,68.1,56C55.3,65.3,37.9,67.7,23.3,65.7C8.7,63.6,-3.1,57.3,-13.7,51.8C-24.3,46.4,-33.7,41.8,-41.7,34.9C-49.6,27.9,-56.2,18.5,-60.9,6.8C-65.7,-4.9,-68.6,-18.7,-65.1,-31.1C-61.6,-43.5,-51.7,-54.3,-39.8,-60.1C-27.9,-66,-13.9,-66.9,-2.8,-62.5C8.2,-58,16.5,-48.3,29.4,-42.9Z" transform="translate(100 100)" />
</svg>
