<?xml version="1.0" standalone="no"?>
<svg viewBox="0 0 200 200" xmlns="http://www.w3.org/2000/svg">
  <path fill="#E8DAFF" d="M34.4,-49.4C46.7,-45.7,60.1,-39.6,70,-28.8C79.9,-18,86.3,-2.3,82.7,10.8C79.2,23.9,65.6,34.5,53.5,43.6C41.3,52.6,30.6,60,17.8,66.2C5.1,72.4,-9.6,77.5,-23,75.1C-36.5,72.6,-48.7,62.7,-59.8,51.1C-71,39.6,-81,26.3,-82.4,12.3C-83.8,-1.8,-76.5,-16.7,-70.1,-32.6C-63.8,-48.5,-58.3,-65.4,-46.8,-69.5C-35.3,-73.6,-17.6,-64.9,-3.3,-59.8C11.1,-54.7,22.2,-53.2,34.4,-49.4Z" transform="translate(100 100)" />
</svg>
