<svg width="262" height="235" viewBox="0 0 262 235" fill="none" xmlns="http://www.w3.org/2000/svg">
<path d="M131.764 99.9303L132.639 100.218C133.038 100.349 133.038 100.922 132.639 101.053L131.764 101.34C130.672 101.699 129.816 102.567 129.462 103.674L129.179 104.56C129.049 104.965 128.484 104.965 128.355 104.56L128.071 103.674C127.717 102.567 126.861 101.699 125.769 101.34L124.895 101.053C124.495 100.922 124.495 100.349 124.895 100.218L125.769 99.9303C126.861 99.5717 127.717 98.7037 128.071 97.5968L128.355 96.7104C128.484 96.3059 129.049 96.3059 129.179 96.7104L129.462 97.5968C129.816 98.7031 130.672 99.5711 131.764 99.9303Z" fill="white"/>
<path d="M137.65 107.433L138.298 107.646C138.593 107.743 138.593 108.166 138.298 108.263L137.65 108.476C136.842 108.742 136.209 109.384 135.947 110.203L135.737 110.859C135.641 111.159 135.223 111.159 135.127 110.859L134.917 110.203C134.655 109.384 134.022 108.742 133.214 108.476L132.566 108.263C132.271 108.166 132.271 107.743 132.566 107.646L133.214 107.433C134.022 107.167 134.655 106.525 134.917 105.706L135.127 105.05C135.223 104.75 135.641 104.75 135.737 105.05L135.947 105.706C136.209 106.525 136.842 107.167 137.65 107.433Z" fill="white"/>
<path d="M51.9488 64.6532L52.5959 64.8659C52.8915 64.963 52.8915 65.3866 52.5959 65.4837L51.9488 65.6963C51.1406 65.962 50.507 66.6042 50.2449 67.4234L50.0351 68.0793C49.9393 68.3789 49.5214 68.3789 49.4256 68.0793L49.2158 67.4234C48.9536 66.6042 48.32 65.962 47.5119 65.6963L46.8648 65.4837C46.5692 65.3866 46.5692 64.963 46.8648 64.8659L47.5119 64.6532C48.32 64.3875 48.9536 63.7453 49.2158 62.9262L49.4256 62.2703C49.5214 61.9706 49.9393 61.9706 50.0351 62.2703L50.2449 62.9262C50.507 63.7453 51.1406 64.3875 51.9488 64.6532Z" fill="white"/>
<path d="M41.086 188.138L41.7331 188.35C42.0287 188.447 42.0287 188.871 41.7331 188.968L41.086 189.181C40.2778 189.447 39.6442 190.089 39.3821 190.908L39.1723 191.564C39.0765 191.863 38.6586 191.863 38.5628 191.564L38.353 190.908C38.0908 190.089 37.4573 189.447 36.6491 189.181L36.002 188.968C35.7064 188.871 35.7064 188.447 36.002 188.35L36.6491 188.138C37.4573 187.872 38.0908 187.23 38.353 186.411L38.5628 185.755C38.6586 185.455 39.0765 185.455 39.1723 185.755L39.3821 186.411C39.6442 187.23 40.2778 187.872 41.086 188.138Z" fill="white"/>
<path d="M249.121 140.841L249.768 141.054C250.064 141.151 250.064 141.574 249.768 141.672L249.121 141.884C248.313 142.15 247.679 142.792 247.417 143.611L247.207 144.267C247.111 144.567 246.694 144.567 246.598 144.267L246.388 143.611C246.126 142.792 245.492 142.15 244.684 141.884L244.037 141.672C243.741 141.574 243.741 141.151 244.037 141.054L244.684 140.841C245.492 140.575 246.126 139.933 246.388 139.114L246.598 138.458C246.694 138.158 247.111 138.158 247.207 138.458L247.417 139.114C247.679 139.933 248.313 140.575 249.121 140.841Z" fill="white"/>
<path d="M40.118 83.7686C46.4156 86.251 52.2766 98.3974 51.5766 102.298L41.605 98.9294L37.5813 90.5951L40.118 83.7686Z" fill="#2E344B"/>
<path d="M39.6807 87.0647C42.4448 85.4163 48.4615 82.2852 51.5507 79.8129C54.6405 77.3406 66.6727 72.0665 66.6727 72.0665L71.3882 97.4484C71.3882 97.4484 67.3233 98.4373 63.2579 98.1079C59.1925 97.7784 57.404 96.9539 55.6155 97.4484C53.827 97.9429 47.9731 103.052 47.9731 103.052L39.6807 87.0647Z" fill="#D8877B"/>
<path d="M47.9737 103.052C47.9737 103.052 50.8766 100.519 53.2187 98.8472C48.7924 95.8012 42.5906 87.7957 41.3169 86.1211C40.7016 86.4696 40.1432 86.7895 39.6807 87.0647L47.9737 103.052Z" fill="#B44E50"/>
<path d="M165.988 143.259C168.743 142.727 174.779 146.584 176.878 148.446C178.977 150.307 181.645 157.622 181.645 157.622L167.562 151.504L165.988 143.259Z" fill="#2E344B"/>
<path d="M163.237 148.545C163.237 148.545 171.49 140.13 174.055 136.499C176.619 132.868 178.711 121.274 181.451 117.016C184.192 112.759 189.132 108.963 190.896 107.443C192.66 105.923 193.902 107.906 193.706 108.786C193.509 109.667 188.882 116.971 188.882 116.971C188.882 116.971 191.398 116.86 192.032 119.986C192.032 119.986 194.803 120.067 194.329 122.846C194.329 122.846 197.432 124.498 195.903 126.237C193.214 129.296 193.191 131.246 191.18 134.283C189.169 137.319 186.588 140.932 186.588 140.932C186.588 140.932 178.658 159.022 178.326 160.02L163.237 148.545Z" fill="#D8877B"/>
<path d="M181.081 153.55L167.385 144.205C167.377 144.213 167.369 144.221 167.362 144.229C167.256 144.341 167.152 144.452 167.05 144.562C167.041 144.571 167.033 144.58 167.024 144.589L165.483 150.252L172.758 155.785L175.337 157.746L178.73 159.019C179.219 157.856 180.089 155.837 181.081 153.55Z" fill="#B44E50"/>
<path d="M83.8289 54.8015C52.1561 60.1047 56.4096 88.896 57.9918 98.5999C59.574 108.304 47.9731 116.696 54.0369 124.564C60.1006 132.432 74.3375 140.037 90.9471 137.415C107.557 134.793 120.388 130.439 124.43 123.515C129.176 115.385 120.475 104.894 119.685 90.4699C118.894 76.0454 110.457 50.343 83.8289 54.8015Z" fill="#2E344B"/>
<path d="M68.1961 128.542C58.5742 129.428 55.5133 129.96 51.3144 128.187C47.1156 126.414 39.6807 119.942 37.9316 116.395C36.1824 112.849 50.8772 103.185 51.5766 102.298C48.4274 99.4614 42.3925 94.4078 40.118 83.7686C37.4937 83.5911 15.8013 96.0038 9.32851 107.352C2.85571 118.7 19.2126 139.358 26.3854 144.5C33.5582 149.643 54.9878 164.271 54.9878 164.271C54.9878 164.271 57.3494 216.315 53.3257 231.741H125.576C125.576 231.741 118.098 209.648 121.728 201.775C130.163 183.475 125.751 175.177 125.926 171.985C125.926 171.985 140.621 189.717 151.993 188.476C163.364 187.234 181.645 157.622 181.645 157.622L165.988 143.259C165.988 143.259 154.092 156.558 151.118 159.75C148.144 162.941 133.624 139.802 130.65 136.787C127.676 133.773 117.705 129.251 111.677 129.215C104.846 128.63 68.1961 128.542 68.1961 128.542Z" fill="#6F00FF"/>
<path d="M78.3425 111.519C78.3425 111.519 79.0348 120.293 76.5934 124.995C74.8437 128.364 68.1963 128.542 68.1963 128.542C68.1963 128.542 75.3685 145.387 90.5887 145.21C105.808 145.032 111.677 129.215 111.677 129.215C111.677 129.215 108.372 129.386 105.048 126.903C101.725 124.421 102.485 114.888 102.485 114.888L78.3425 111.519Z" fill="#D8877B"/>
<path d="M98.5319 114.336L78.3429 111.519C78.3429 111.519 79.0088 119.988 76.7161 124.744C95.3122 131.024 103.184 120.562 103.184 120.562L98.5319 114.336Z" fill="#B44E50"/>
<path d="M68.1962 98.0441C68.1962 98.0441 62.2483 99.1081 64.1725 104.427C66.0968 109.747 71.8702 108.151 71.8702 108.151C71.8702 108.151 80.3255 128.481 101.785 122.514C121.553 117.018 113.331 89.3559 111.232 81.7311C111.232 81.7311 86.9152 85.1 78.8678 76.7662C78.8678 76.7662 77.8176 92.3697 68.1962 98.0441Z" fill="#D8877B"/>
<path d="M188.985 117.697C188.519 117.115 187.62 117.007 186.934 117.087C186.121 117.181 185.357 117.529 184.637 117.906C183.881 118.301 183.129 118.716 182.41 119.177C181.084 120.026 179.836 121.063 178.97 122.405C178.509 123.121 178.197 123.901 178.036 124.74C177.859 125.664 177.834 126.68 177.454 127.549C177.39 127.695 177.59 127.823 177.67 127.677C178.006 127.066 178.222 126.422 178.358 125.738C178.5 125.03 178.635 124.316 178.916 123.649C179.47 122.336 180.464 121.268 181.586 120.429C182.764 119.549 184.088 118.776 185.413 118.147C186.098 117.821 186.897 117.548 187.664 117.671C187.979 117.722 188.415 117.834 188.58 118.142C188.757 118.468 188.563 118.919 188.428 119.228C187.797 120.673 186.583 121.738 185.414 122.734C185.322 122.813 185.293 122.965 185.325 123.078C185.745 124.561 185.707 126.15 185.258 127.622C185.033 128.36 184.703 129.06 184.281 129.702C183.861 130.34 183.283 130.831 182.853 131.453C182.701 131.672 182.986 131.869 183.178 131.782C183.903 131.456 184.442 130.706 184.877 130.055C185.336 129.367 185.692 128.603 185.94 127.812C186.416 126.287 186.468 124.648 186.053 123.106C187.147 122.145 188.296 121.121 188.896 119.758C189.169 119.137 189.463 118.295 188.985 117.697Z" fill="#B44E50"/>
<path d="M196.279 124.305C196.152 123.896 195.935 123.522 195.656 123.201C195.412 122.921 195.002 122.509 194.607 122.518C194.57 122.518 194.535 122.531 194.503 122.55C194.533 122.103 194.47 121.643 194.272 121.173C193.884 120.251 192.944 119.634 191.955 119.656C191.982 119.295 191.938 118.926 191.768 118.548C191.311 117.526 190.235 116.904 189.153 116.828C188.876 116.808 188.814 117.264 189.088 117.322C190.042 117.524 190.988 117.958 191.302 118.979C191.621 120.015 190.913 120.994 190.432 121.851C189.939 122.73 189.484 123.693 188.845 124.476C188.552 124.833 188.21 125.126 187.801 125.338C187.596 125.443 187.382 125.516 187.156 125.556C186.954 125.591 186.736 125.591 186.551 125.687C186.511 125.708 186.512 125.761 186.537 125.792C186.767 126.057 187.185 126.041 187.542 125.958C187.576 126.324 187.931 126.708 188.185 126.936C188.518 127.236 188.914 127.423 189.359 127.469C189.68 127.503 189.988 127.462 190.286 127.379C190.279 127.398 190.266 127.413 190.267 127.435C190.297 128.169 190.796 128.962 191.475 129.237C192.293 129.57 193.197 129.137 193.854 128.643C194.594 128.089 195.248 127.408 195.795 126.661C196.307 125.96 196.543 125.156 196.279 124.305ZM188.613 126.716C188.394 126.575 188.202 126.388 188.026 126.197C187.926 126.09 187.842 125.983 187.726 125.91C187.788 125.891 187.846 125.871 187.899 125.852C188.388 125.671 188.808 125.338 189.155 124.95C189.969 124.038 190.507 122.855 191.116 121.801C191.418 121.278 191.72 120.735 191.871 120.171C191.883 120.173 191.892 120.179 191.906 120.179C192.972 120.201 193.805 120.98 193.876 122.068C193.944 123.125 193.405 124.056 192.729 124.813C192.384 125.2 192.002 125.553 191.611 125.892C191.192 126.258 190.75 126.631 190.221 126.823C189.694 127.014 189.098 127.028 188.613 126.716ZM194.643 127.059C194.035 127.727 193.294 128.52 192.393 128.745C191.968 128.852 191.525 128.777 191.201 128.465C190.879 128.154 190.776 127.739 190.602 127.342C190.592 127.317 190.57 127.308 190.552 127.294C191.123 127.077 191.646 126.701 192.106 126.308C193.121 125.441 194.207 124.253 194.457 122.911C194.565 123.037 194.698 123.11 194.833 123.213C194.997 123.337 195.148 123.486 195.276 123.648C195.511 123.944 195.678 124.3 195.743 124.675C195.905 125.623 195.232 126.412 194.643 127.059Z" fill="#B44E50"/>
<path d="M188.918 130.914C188.908 130.612 188.89 130.31 188.862 130.01C188.808 129.425 188.71 128.844 188.525 128.285C188.168 127.209 187.424 126.145 186.453 125.549C186.329 125.474 186.148 125.633 186.243 125.762C186.568 126.206 186.999 126.564 187.33 127.006C187.668 127.459 187.907 127.971 188.062 128.516C188.209 129.034 188.287 129.573 188.337 130.11C188.364 130.394 188.376 130.679 188.393 130.964C188.406 131.196 188.394 131.452 188.56 131.629C188.616 131.689 188.732 131.695 188.788 131.629C188.954 131.43 188.926 131.163 188.918 130.914Z" fill="#B44E50"/>
<path d="M111.38 82.2691C111.328 82.0815 111.278 81.8992 111.231 81.7306C111.231 81.7306 86.9147 85.0995 78.8673 76.7657C78.8673 76.7657 77.8176 92.3698 68.1963 98.0442C78.5176 94.9398 80.7922 84.2118 80.3543 80.7542C80.3543 80.7542 90.6421 87.7553 111.38 82.2691Z" fill="#B44E50"/>
<path d="M69.6284 105.652C69.609 105.655 69.5896 105.658 69.5603 105.662C69.5438 105.667 69.5279 105.671 69.5115 105.676C69.3181 105.738 69.4686 105.709 69.3299 105.742C69.2734 105.756 69.2164 105.773 69.1594 105.784C69.1559 105.784 69.1571 105.784 69.1541 105.785C69.1289 105.786 69.1036 105.787 69.0783 105.786C69.0748 105.786 69.0765 105.786 69.0736 105.786C69.0395 105.778 69.006 105.769 68.9737 105.757C69.0642 105.784 68.9173 105.698 68.9796 105.757C68.9149 105.696 68.8996 105.655 68.872 105.587C68.8291 105.482 68.8544 105.606 68.855 105.491C68.855 105.481 68.8673 105.385 68.8656 105.371C68.882 105.327 68.9161 105.239 68.8849 105.298C68.942 105.188 68.8814 105.299 68.9514 105.211C69.0207 105.123 68.9414 105.197 69.0301 105.143C69.0378 105.138 69.1242 105.092 69.1394 105.081C69.2058 105.055 69.2752 105.035 69.344 105.018C69.3546 105.017 69.3522 105.017 69.3581 105.015C69.3945 105.012 69.4304 105.01 69.4668 105.011C70.0369 105.002 70.4354 104.218 69.9611 103.801C69.8494 103.702 69.7895 103.522 69.7172 103.386C69.6431 103.247 69.5691 103.108 69.4944 102.97C69.3457 102.691 69.2017 102.408 69.0436 102.134C68.708 101.553 68.2731 101.041 67.6278 100.815C67.0171 100.602 66.3647 100.799 65.9104 101.244C65.7176 101.433 65.5572 101.666 65.4267 101.902C65.2803 102.168 65.104 102.527 65.1957 102.835C65.2862 103.14 65.5977 103.24 65.8657 103.111C66.0738 103.012 66.2025 102.747 66.32 102.553C66.4158 102.395 66.4917 102.277 66.6186 102.148C66.6962 102.068 66.7168 102.05 66.7755 102.015C66.8766 101.952 66.8496 101.958 66.9501 101.938C66.9736 101.933 66.9801 101.931 66.9807 101.93C66.9824 101.93 66.9812 101.93 66.9836 101.93C67.0247 101.927 67.0665 101.925 67.107 101.931C67.2105 101.946 67.3004 101.995 67.3856 102.053C67.6871 102.258 67.8823 102.629 68.065 102.982C68.1826 103.209 68.2972 103.438 68.413 103.666C68.4506 103.741 68.4882 103.814 68.5258 103.888C68.2937 104.026 68.085 104.206 67.9205 104.448C67.5855 104.94 67.5384 105.586 67.7776 106.126C68.0039 106.638 68.4947 106.971 69.0489 106.977C69.6255 106.983 70.1868 106.612 70.1627 105.986C70.1515 105.702 69.8771 105.543 69.6284 105.652Z" fill="#B44E50"/>
<path d="M178.384 158.521C176.418 157.106 174.501 155.621 172.639 154.067C170.803 152.535 169.026 150.934 167.287 149.29C166.376 148.429 165.475 147.555 164.604 146.652C164.321 146.359 164.048 146.044 163.775 145.729C163.607 145.917 163.431 146.112 163.249 146.316C163.463 146.556 163.678 146.79 163.884 147.02C164.724 147.956 165.598 148.861 166.482 149.753C168.252 151.54 170.104 153.244 172.007 154.883C173.853 156.473 175.754 157.998 177.703 159.457C178.322 159.92 178.955 160.364 179.584 160.813C179.824 160.452 180.043 160.118 180.244 159.81C179.623 159.383 178.997 158.962 178.384 158.521Z" fill="#2E344B"/>
<path d="M37.9164 93.5774C39.6785 97.2638 42.0905 100.661 44.9605 103.543C45.6893 104.276 46.4586 104.966 47.2509 105.627C47.5213 105.42 47.784 105.22 48.0403 105.027C47.4531 104.539 46.8771 104.037 46.3223 103.511C44.8494 102.115 43.4811 100.603 42.2581 98.9765C39.8495 95.7756 37.9505 92.1643 36.6839 88.3492C36.3636 87.3847 36.0803 86.4053 35.8129 85.4211C35.6224 85.5182 35.4291 85.6171 35.2292 85.7214C35.3791 86.4339 35.5431 87.1434 35.7359 87.8452C36.2778 89.8159 37.0371 91.7371 37.9164 93.5774Z" fill="#2E344B"/>
<path d="M115.031 129.593C112.121 136.526 106.87 142.412 100.356 146.07C98.3122 147.217 96.0424 148.337 93.732 148.775C91.1471 149.265 88.253 148.667 85.7434 148.005C80.8287 146.71 76.3319 144.233 72.6156 140.721C70.5978 138.814 68.8452 136.631 67.4076 134.245C66.3667 132.518 65.5962 130.699 64.8427 128.856C64.6199 128.877 64.4013 128.898 64.1868 128.918C64.724 130.709 65.5633 132.448 66.4449 134.04C67.6644 136.242 69.1502 138.297 70.8506 140.142C74.3576 143.948 78.8686 146.774 83.7386 148.407C86.2341 149.245 88.899 149.789 91.5303 149.885C94.2057 149.983 96.6889 149.01 99.0728 147.871C103.23 145.885 106.982 143.01 110.056 139.551C112.597 136.692 114.68 133.387 116.197 129.846C115.803 129.753 115.414 129.668 115.031 129.593Z" fill="#2E344B"/>
<path d="M105.814 207.584C104.735 207.855 103.733 208.559 102.715 209.012C101.653 209.485 100.565 209.903 99.4605 210.262C97.2571 210.98 94.9813 211.464 92.6815 211.722C88.0818 212.239 83.3687 211.832 78.9272 210.513C76.4287 209.771 74.1541 208.614 71.7685 207.594C71.5945 207.519 71.4394 207.799 71.5828 207.917C73.3648 209.384 75.5988 210.369 77.7435 211.165C80.008 212.005 82.3608 212.6 84.7505 212.927C89.5136 213.579 94.3918 213.265 99.0168 211.923C100.323 211.545 101.606 211.087 102.854 210.544C104.024 210.036 105.478 209.51 106.384 208.576C106.799 208.147 106.379 207.441 105.814 207.584Z" fill="#2E344B"/>
<path d="M111.178 209.99C110.378 210.291 109.819 210.922 109.158 211.455C108.492 211.992 107.752 212.451 107.007 212.865C106.255 213.283 105.477 213.648 104.69 213.989C104.449 214.093 102.706 214.741 103.022 215.177C103.228 215.462 103.683 215.31 103.967 215.248C104.385 215.159 104.792 215.013 105.193 214.864C106.063 214.543 106.924 214.192 107.756 213.78C108.561 213.382 109.315 212.911 110.022 212.354C110.373 212.079 110.712 211.779 110.991 211.427C111.296 211.042 111.439 210.724 111.5 210.239C111.52 210.08 111.32 209.937 111.178 209.99Z" fill="#2E344B"/>
<path d="M55.8277 165.089C55.8313 165.073 55.8377 165.057 55.8371 165.039C55.8366 165.023 55.8313 165.01 55.8289 164.995C55.8354 164.376 55.8307 163.756 55.7807 163.136C55.7031 162.179 55.5668 161.221 55.3946 160.276C55.2253 159.345 55.0584 158.426 54.5535 157.621C54.5347 157.591 54.493 157.604 54.49 157.638C54.4095 158.63 54.6387 159.594 54.7528 160.58C54.8674 161.571 54.9197 162.566 54.9573 163.564C54.962 163.693 54.9596 163.821 54.9632 163.95C54.8556 163.84 54.7487 163.731 54.6387 163.624C54.4236 163.416 54.2197 163.194 54.0005 162.991C53.7795 162.787 53.5796 162.561 53.2946 162.451C53.2117 162.42 53.1512 162.512 53.1641 162.584C53.2182 162.883 53.4174 163.128 53.592 163.368C53.7742 163.618 53.9816 163.851 54.1838 164.085C54.3795 164.312 54.5958 164.523 54.8086 164.733C54.8633 164.787 54.922 164.835 54.9779 164.887C54.9767 165.441 54.9649 165.995 54.9379 166.551C54.8962 167.4 54.8568 168.357 55.3047 169.113C55.4563 169.369 55.9476 169.287 55.9053 168.948C55.746 167.668 55.8113 166.379 55.8277 165.089Z" fill="#2E344B"/>
<path d="M125.83 168.618C125.63 167.848 125.419 167.081 125.158 166.33C125.023 165.939 124.882 165.55 124.737 165.164C124.587 164.763 124.341 164.426 124.179 164.037C124.169 164.012 124.131 164.021 124.138 164.048C124.243 164.443 124.249 164.87 124.351 165.272C124.453 165.671 124.548 166.072 124.64 166.475C124.809 167.223 124.991 167.967 125.15 168.717C125.478 170.271 125.748 171.837 126.127 173.378C126.188 173.626 126.576 173.576 126.569 173.318C126.522 171.731 126.226 170.152 125.83 168.618Z" fill="#2E344B"/>
<path d="M88.1506 88.6959C88.3123 88.3569 88.2212 88.5333 88.1724 88.6417C88.1647 88.6601 88.1589 88.6792 88.1506 88.6959Z" fill="#2E344B"/>
<path d="M87.9931 87.4585C87.8126 87.3054 87.6363 87.1576 87.4053 87.0885C87.1408 87.0099 86.8558 87.0331 86.5901 87.0784C86.3844 87.1135 86.1822 87.1785 85.9853 87.247C85.5063 87.4132 85.0585 87.6682 84.647 87.9654C83.823 88.56 82.9267 89.3422 82.6816 90.3782C82.5941 90.7487 82.7134 91.1276 83.0125 91.3617C83.2993 91.5863 83.7202 91.6316 84.0381 91.435C84.3091 91.2676 84.5436 91.0811 84.781 90.8673C84.8451 90.8095 84.9121 90.7553 84.9791 90.6999C84.8645 90.7976 85.129 90.5789 85.2066 90.5152C85.1983 90.5206 85.1936 90.5235 85.1848 90.5289C85.1948 90.5223 85.2048 90.5152 85.2148 90.5086C85.2166 90.5068 85.2201 90.5039 85.2219 90.5027C85.2507 90.4789 85.2936 90.452 85.3188 90.4377C85.4816 90.3263 85.6397 90.209 85.8108 90.1083C86.0259 89.982 86.2481 89.8712 86.4761 89.7705C86.673 89.6871 86.8705 89.6043 87.0674 89.5197C86.968 89.562 86.8687 89.6049 86.7694 89.6472C87.0109 89.5459 87.2725 89.4732 87.5035 89.3511C87.6128 89.2933 87.7033 89.2236 87.8015 89.1468C87.9654 89.0187 88.0783 88.8698 88.1588 88.6762C88.1629 88.6666 88.1682 88.6547 88.1735 88.6422C88.331 88.2645 88.3334 87.7462 87.9931 87.4585Z" fill="#2E344B"/>
<path d="M85.2061 90.5152C85.3465 90.427 85.353 90.4175 85.3177 90.4378C85.283 90.461 85.249 90.486 85.2143 90.5087C85.2119 90.5105 85.2084 90.5128 85.2061 90.5152Z" fill="#2E344B"/>
<path d="M105.976 86.6912C105.829 86.4416 105.649 86.2963 105.415 86.1348C104.985 85.8387 104.496 85.6445 104.001 85.4878C103.519 85.3353 103.028 85.2376 102.522 85.2156C102.306 85.2061 102.089 85.2067 101.873 85.2174C101.604 85.2305 101.356 85.2597 101.134 85.4336C100.864 85.6451 100.646 86.0717 100.786 86.4231C100.882 86.6656 101 86.8813 101.231 87.0183C101.368 87.0993 101.526 87.1297 101.677 87.1702C101.855 87.2179 102.032 87.2727 102.207 87.334C102.507 87.4395 102.807 87.5509 103.103 87.6688C103.32 87.7671 103.532 87.8702 103.741 87.984C103.857 88.0471 103.978 88.0984 104.097 88.1567C104.156 88.1859 104.214 88.2181 104.273 88.2467C104.49 88.3527 104.668 88.3932 104.888 88.4266C105.146 88.4498 105.385 88.4343 105.632 88.2836C105.867 88.1412 106.05 87.9053 106.122 87.6372C106.209 87.3173 106.14 86.9718 105.976 86.6912Z" fill="#2E344B"/>
<path d="M104.983 88.4444C104.947 88.4396 104.921 88.4319 104.888 88.4271C104.819 88.4212 104.75 88.4134 104.677 88.4027L104.983 88.4444Z" fill="#2E344B"/>
<path d="M90.5246 96.2867C90.2913 94.711 89.4531 93.227 88.0308 93.339C87.3802 93.3902 86.9112 93.7459 86.572 94.2898C86.4204 94.5328 86.3434 94.82 86.2693 95.0964C86.1923 95.3812 86.163 95.6683 86.1436 95.962C86.0295 97.6753 87.9262 102.028 90.0268 99.3428C90.5352 98.6916 90.6986 97.4638 90.5246 96.2867Z" fill="#2E344B"/>
<path d="M104.954 94.7855C104.739 93.3361 103.968 91.97 102.658 92.0731C102.06 92.1202 101.628 92.4472 101.316 92.9483C101.177 93.1722 101.106 93.4368 101.037 93.6905C100.967 93.9527 100.939 94.2166 100.922 94.487C100.817 96.0639 102.563 100.069 104.495 97.5986C104.964 96.9987 105.114 95.8685 104.954 94.7855Z" fill="#2E344B"/>
<path d="M99.1225 100.709C98.7758 100.44 98.3949 100.224 98.0716 99.923C97.7366 99.6114 97.4563 99.2558 97.2323 98.8543C97.0078 98.451 96.8444 98.0232 96.6946 97.5871C96.6575 97.4805 96.4794 96.8574 96.2473 96.9723C95.6225 97.2815 96.0621 98.5606 96.262 99.0288C96.5794 99.7717 97.066 100.453 97.6896 100.961C98.2068 101.383 98.9674 101.708 98.958 102.485C98.9544 102.808 98.8333 103.116 98.6829 103.396C98.6018 103.547 98.5113 103.693 98.4302 103.844C98.3373 104.017 98.2879 104.209 98.1727 104.369C98.034 104.561 98.2644 104.845 98.4778 104.771C98.9033 104.625 99.2289 104.508 99.5134 104.128C99.7655 103.791 99.9348 103.391 100.006 102.974C100.163 102.069 99.839 101.266 99.1225 100.709Z" fill="#B44E50"/>
<path d="M101.522 107.97C101.496 107.949 101.468 107.93 101.442 107.909C101.019 107.404 100.161 107.281 99.5552 107.269C98.8605 107.255 98.1993 107.396 97.568 107.686C97.0485 107.924 96.5642 108.288 96.188 108.723C95.8389 109.127 95.3246 109.81 95.5051 110.385C95.5738 110.604 95.8342 110.738 96.0411 110.606C96.2568 110.468 96.3838 110.232 96.5278 110.025C96.6571 109.838 96.8005 109.666 96.9638 109.509C97.2812 109.203 97.6703 108.963 98.0853 108.823C98.5731 108.658 99.0909 108.595 99.6034 108.619C99.8761 108.631 100.149 108.653 100.419 108.69C100.571 108.711 100.719 108.738 100.872 108.738C101.025 108.738 101.173 108.707 101.324 108.72C101.76 108.757 101.799 108.181 101.522 107.97Z" fill="#B44E50"/>
<path d="M90.0431 93.7339C89.9973 93.5689 89.915 93.4253 89.7957 93.3032C89.731 93.2526 89.6658 93.2013 89.6012 93.1507C89.4513 93.0625 89.2891 93.0178 89.1151 93.0172C88.9823 93.0119 88.8588 93.0399 88.7442 93.1013C88.6249 93.1406 88.5215 93.2079 88.4345 93.3032C88.3405 93.3914 88.274 93.4962 88.2352 93.6172C88.1747 93.7333 88.1477 93.8584 88.1524 93.9931C88.1641 94.0794 88.1753 94.1658 88.187 94.2522C88.2329 94.4178 88.3152 94.5614 88.4345 94.6829C88.4997 94.7336 88.5644 94.7848 88.629 94.8354C88.7795 94.9236 88.9411 94.9683 89.1151 94.9689C89.2479 94.9736 89.3714 94.9462 89.486 94.8849C89.6053 94.8456 89.7087 94.7782 89.7957 94.6829C89.8897 94.5948 89.9562 94.4899 89.9949 94.369C90.0549 94.2528 90.0825 94.1271 90.0778 93.9931L90.0431 93.7339Z" fill="white"/>
<path d="M104.746 92.5556C104.704 92.4036 104.628 92.2714 104.518 92.1594C104.458 92.1123 104.399 92.0659 104.339 92.0188C104.201 91.9378 104.051 91.8967 103.891 91.8961C103.769 91.8913 103.656 91.9169 103.55 91.9735C103.44 92.0099 103.345 92.0718 103.265 92.1594C103.179 92.2404 103.117 92.3369 103.082 92.4483C103.026 92.5555 103 92.6705 103.005 92.7944C103.016 92.8737 103.026 92.9535 103.037 93.0327C103.079 93.1846 103.155 93.3169 103.265 93.4289C103.325 93.476 103.384 93.5224 103.444 93.5695C103.582 93.6505 103.732 93.6916 103.891 93.6922C104.014 93.697 104.127 93.6714 104.233 93.6148C104.343 93.5784 104.438 93.5165 104.518 93.4289C104.604 93.3479 104.666 93.2514 104.701 93.14C104.757 93.0327 104.783 92.9178 104.778 92.7938L104.746 92.5556Z" fill="white"/>
<path d="M87.6635 102.697C87.8498 104.08 86.1388 105.459 83.8414 105.777C81.5439 106.095 79.5303 105.233 79.344 103.85C79.1576 102.467 80.8686 101.088 83.166 100.77C85.4629 100.452 87.4766 101.315 87.6635 102.697Z" fill="#C85F64"/>
<path d="M112.46 99.5865C112.611 100.704 111.228 101.818 109.371 102.076C107.514 102.333 105.887 101.635 105.736 100.518C105.586 99.4007 106.969 98.2866 108.825 98.0293C110.682 97.7719 112.31 98.4689 112.46 99.5865Z" fill="#C85F64"/>
<path d="M86.1069 93.6619C86.0764 93.532 86.0088 93.3986 85.9077 93.311C85.8431 93.2556 85.7802 93.1978 85.7185 93.1388C85.6585 93.081 85.5933 93.0286 85.5321 92.972C85.4998 92.9422 85.4675 92.9118 85.4357 92.8809C85.367 92.8141 85.2894 92.7623 85.1983 92.7325C85.1272 92.7093 85.0631 92.7117 84.9926 92.7212C84.9861 92.7212 84.9803 92.726 84.9738 92.7266C84.8756 92.7367 84.7822 92.7742 84.7069 92.8505C84.6211 92.9375 84.5724 93.0632 84.5759 93.1877C84.5759 93.1924 84.5741 93.1978 84.5735 93.2026C84.5694 93.2925 84.5894 93.3318 84.6194 93.4039C84.6499 93.4772 84.694 93.5421 84.7551 93.5922C84.8163 93.6422 84.878 93.6905 84.9403 93.7381C85.0096 93.7923 85.0796 93.8477 85.1548 93.8924C85.2289 93.9359 85.3035 93.9776 85.3799 94.0175C85.4452 94.0515 85.5086 94.0771 85.5815 94.0872C85.615 94.092 85.6485 94.0962 85.682 94.0997C85.7473 94.1063 85.8131 94.092 85.876 94.0759C86.0529 94.03 86.1481 93.8346 86.1069 93.6619Z" fill="#C85F64"/>
<path d="M85.7544 94.7509C85.7167 94.661 85.6597 94.5954 85.578 94.5418C85.4387 94.4501 85.2918 94.4096 85.1261 94.4233C85.0314 94.431 84.9374 94.4286 84.8428 94.4286C84.7481 94.4286 84.6506 94.4358 84.5565 94.4411C84.4684 94.4459 84.3837 94.4668 84.2991 94.4906C84.2421 94.5067 84.1827 94.5299 84.131 94.5579C84.0376 94.6079 83.987 94.6854 83.9271 94.7694C83.8818 94.8486 83.8589 94.9338 83.8589 95.0249C83.8595 95.1167 83.8818 95.2019 83.9271 95.2811C84.0011 95.4449 84.1469 95.5123 84.2997 95.5748C84.3926 95.6129 84.4725 95.6308 84.5795 95.635C84.7223 95.6403 84.8722 95.6332 85.0109 95.601C85.1067 95.579 85.2019 95.5492 85.2942 95.5146C85.4176 95.4688 85.5263 95.4193 85.6192 95.3198C85.705 95.2275 85.7297 95.1512 85.7773 95.0363C85.7826 94.9976 85.7873 94.9588 85.7926 94.9201C85.7943 94.8593 85.782 94.8033 85.7544 94.7509Z" fill="#C85F64"/>
<path d="M105.6 90.4706C105.288 90.3371 105.045 90.6809 104.933 90.9299C104.898 91.0079 104.861 91.0854 104.824 91.1628C104.805 91.2027 104.784 91.2421 104.765 91.2826C104.743 91.329 104.721 91.3779 104.707 91.4273C104.691 91.4845 104.691 91.5411 104.69 91.5989C104.684 91.7693 104.8 91.9271 104.949 91.9909C105.021 92.0219 105.091 92.0308 105.169 92.0201C105.268 92.0064 105.333 91.9653 105.411 91.9021C105.47 91.8551 105.52 91.7961 105.552 91.727C105.571 91.6865 105.589 91.646 105.607 91.6055C105.654 91.5 105.699 91.394 105.743 91.2873C105.85 91.0306 105.913 90.604 105.6 90.4706Z" fill="#C85F64"/>
<path d="M106.815 92.1231C106.673 91.9647 106.448 91.9754 106.266 92.0356C106.197 92.0582 106.13 92.0838 106.063 92.1112C105.952 92.1571 105.822 92.1994 105.732 92.2822C105.67 92.3388 105.6 92.4151 105.558 92.4871C105.475 92.6313 105.548 92.8434 105.716 92.8815C105.776 92.8952 105.84 92.8958 105.901 92.9018C105.923 92.9036 105.944 92.9071 105.966 92.9083C106.016 92.9125 106.067 92.9 106.114 92.8887C106.192 92.8708 106.271 92.8577 106.349 92.8458C106.38 92.8422 106.41 92.838 106.442 92.8356C106.486 92.8321 106.532 92.8303 106.575 92.819C106.616 92.8076 106.656 92.7856 106.694 92.7677C106.768 92.7344 106.841 92.6724 106.875 92.5979C106.888 92.5664 106.901 92.5354 106.914 92.5044C106.93 92.452 106.932 92.4002 106.921 92.3477C106.91 92.2602 106.875 92.1899 106.815 92.1231Z" fill="#C85F64"/>
<path d="M259.8 235H2.19992C0.985055 235 0 234.002 0 232.77V232.131C0 230.9 0.985055 229.901 2.19992 229.901H259.8C261.015 229.901 262 230.9 262 232.131V232.77C262 234.002 261.015 235 259.8 235Z" fill="#2E344B"/>
<path d="M164.588 89.3637L168.521 91.1419L169.446 87.6932L164.588 89.3637Z" fill="#D3723F"/>
<path d="M184.607 48.1132L182.631 45.2525C182.195 44.621 181.482 44.2451 180.721 44.2451H165.763C164.476 44.2451 163.432 45.3025 163.432 46.6078V49.1218V87.3263C163.432 88.6309 164.476 89.6889 165.763 89.6889H219.459C220.746 89.6889 221.79 88.6315 221.79 87.3263V51.4839C221.79 50.1792 220.746 49.1212 219.459 49.1212H186.516C185.756 49.1212 185.043 48.7447 184.607 48.1132Z" fill="#D3723F"/>
<path d="M169.359 91.3571H223.395C224.588 91.3571 225.556 90.3765 225.556 89.1672V52.9798C225.556 51.7705 224.588 50.7899 223.395 50.7899H169.359C168.166 50.7899 167.198 51.7705 167.198 52.9798V89.1672C167.198 90.3765 168.166 91.3571 169.359 91.3571Z" fill="#EBAB6F"/>
<path d="M234.596 52.2498C235.848 44.4342 230.611 37.0702 222.901 35.8017C215.19 34.5333 207.924 39.8408 206.673 47.6565C205.422 55.4721 210.658 62.8361 218.369 64.1045C226.08 65.373 233.345 60.0654 234.596 52.2498Z" fill="white"/>
<path d="M223.57 49.9546L227.799 45.6683C228.61 44.845 228.61 43.5111 227.799 42.6878C226.987 41.8651 225.67 41.8651 224.858 42.6878L220.629 46.9741L216.401 42.6878C215.589 41.8651 214.272 41.8651 213.46 42.6878C212.648 43.5111 212.648 44.845 213.46 45.6683L217.689 49.9546L213.46 54.2409C212.648 55.0636 212.648 56.3981 213.46 57.2214C214.272 58.0441 215.588 58.0441 216.401 57.2214L220.629 52.9351L224.858 57.2214C225.67 58.0441 226.986 58.0441 227.799 57.2214C228.61 56.3987 228.61 55.0642 227.799 54.2409L223.57 49.9546Z" fill="#C85F64"/>
<path d="M90.9208 48.4344C90.9208 47.1966 91.3254 46.1731 92.1347 45.3637C92.944 44.5068 93.9676 44.0784 95.2054 44.0784C97.1572 44.0784 98.9187 43.7927 100.49 43.2214C102.061 42.6025 103.299 41.6266 104.203 40.2936C105.155 38.9606 105.631 37.1992 105.631 35.0093C105.631 33.3906 105.227 31.9624 104.417 30.7246C103.656 29.4869 102.584 28.5109 101.204 27.7968C99.8708 27.0827 98.3474 26.7257 96.6336 26.7257C95.3006 26.7257 94.039 26.9637 92.8488 27.4398C91.7063 27.9158 90.6589 28.5585 89.7068 29.3679C88.9451 30.0343 88.0167 30.5342 86.9218 30.8675C85.8744 31.1531 84.8033 30.8913 83.7083 30.082C82.5658 29.225 81.9469 28.2015 81.8517 27.0113C81.7564 25.8211 82.2087 24.7262 83.2085 23.7264C84.9223 21.965 86.9218 20.6082 89.2069 19.6561C91.5396 18.6563 94.0152 18.1564 96.6336 18.1564C99.9184 18.1564 102.87 18.9182 105.488 20.4416C108.154 21.9174 110.273 23.9169 111.844 26.44C113.415 28.9632 114.2 31.8196 114.2 35.0093C114.2 37.3896 113.843 39.5081 113.129 41.3648C112.415 43.1738 111.392 44.7448 110.059 46.0778C108.773 47.3632 107.25 48.4106 105.488 49.2199C103.775 49.9816 101.894 50.5291 99.847 50.8623C99.7518 50.9099 99.6566 50.9575 99.5614 51.0051C99.5138 51.0527 99.49 51.1242 99.49 51.2194V53.8616C99.49 55.0993 99.0853 56.1467 98.276 57.0036C97.4667 57.8129 96.4431 58.2176 95.2054 58.2176C93.9676 58.2176 92.944 57.8129 92.1347 57.0036C91.3254 56.1467 90.9208 55.0993 90.9208 53.8616V48.4344ZM94.8483 71C93.4677 71 92.3966 70.6429 91.6349 69.9288C90.9208 69.1671 90.5637 68.096 90.5637 66.7154V65.5014C90.5637 64.1208 90.9208 63.0735 91.6349 62.3594C92.3966 61.5977 93.4677 61.2168 94.8483 61.2168H95.7766C97.1572 61.2168 98.2046 61.5977 98.9187 62.3594C99.6804 63.0735 100.061 64.1208 100.061 65.5014V66.7154C100.061 68.096 99.6804 69.1671 98.9187 69.9288C98.2046 70.6429 97.1572 71 95.7766 71H94.8483Z" fill="white"/>
<path d="M112.219 60.0308C112.605 59.0525 113.243 58.3727 114.133 57.9914C115.037 57.5724 115.977 57.5604 116.952 57.9555C118.489 58.5785 119.965 58.9149 121.38 58.9648C122.81 58.9771 124.089 58.6008 125.217 57.8359C126.382 57.0863 127.306 55.846 127.989 54.1152C128.494 52.8359 128.621 51.5779 128.369 50.3413C128.155 49.1199 127.616 48.0067 126.752 47.0016C125.925 46.0118 124.837 45.2433 123.487 44.6963C122.438 44.2709 121.37 44.0563 120.284 44.0527C119.236 44.0643 118.211 44.238 117.209 44.5738C116.401 44.8575 115.514 44.9562 114.548 44.8701C113.635 44.7616 112.873 44.2128 112.263 43.2237C111.63 42.1817 111.462 41.1752 111.758 40.2041C112.054 39.2331 112.752 38.512 113.851 38.0409C115.75 37.1957 117.747 36.7615 119.844 36.7383C121.992 36.6927 124.097 37.0878 126.159 37.9235C128.746 38.9719 130.833 40.516 132.419 42.5558C134.058 44.5731 135.103 46.8296 135.553 49.3252C136.004 51.8209 135.731 54.3292 134.737 56.8502C133.995 58.7316 133.053 60.292 131.912 61.5316C130.785 62.7335 129.489 63.6485 128.024 64.2766C126.611 64.8822 125.085 65.2238 123.446 65.3013C121.859 65.3563 120.207 65.1888 118.491 64.7988C118.401 64.8061 118.312 64.8133 118.222 64.8205C118.169 64.843 118.128 64.8918 118.099 64.9671L117.275 67.0554C116.889 68.0337 116.244 68.7323 115.339 69.1513C114.449 69.5326 113.517 69.5258 112.543 69.1307C111.568 68.7356 110.888 68.0891 110.503 67.1912C110.133 66.2556 110.141 65.2986 110.527 64.3203L112.219 60.0308ZM108.276 79.1196C107.189 78.6789 106.456 78.0549 106.079 77.2473C105.755 76.4174 105.807 75.4568 106.238 74.3656L106.616 73.4062C107.047 72.315 107.655 71.6011 108.44 71.2647C109.277 70.9057 110.239 70.9466 111.326 71.3872L112.057 71.6835C113.144 72.1242 113.85 72.7595 114.175 73.5894C114.552 74.397 114.526 75.3463 114.095 76.4375L113.717 77.397C113.286 78.4882 112.652 79.2132 111.815 79.5721C111.03 79.9086 110.094 79.8565 109.007 79.4159L108.276 79.1196Z" fill="white"/>
<path d="M64.2115 58.6733C63.8348 57.6914 63.8432 56.7534 64.2366 55.8592C64.6156 54.9273 65.2943 54.2685 66.2727 53.8829C67.8156 53.2748 69.121 52.4995 70.189 51.5568C71.2425 50.5764 71.924 49.4166 72.2333 48.0774C72.5803 46.7233 72.4205 45.1777 71.7541 43.4405C71.2615 42.1565 70.507 41.1496 69.4906 40.4198C68.5118 39.6752 67.3681 39.2347 66.0595 39.0984C64.7885 38.9472 63.4756 39.1386 62.1209 39.6725C61.0672 40.0878 60.1424 40.6697 59.3465 41.4181C58.5882 42.1517 57.9559 42.9879 57.4496 43.9265C57.0503 44.6925 56.4686 45.3783 55.7045 45.9838C54.9635 46.5366 54.0371 46.6626 52.9253 46.3618C51.7614 46.038 50.9607 45.4188 50.5232 44.5043C50.0858 43.5899 50.1101 42.5804 50.5961 41.4758C51.4148 39.5446 52.5824 37.8453 54.099 36.3781C55.6387 34.8583 57.4434 33.6905 59.5131 32.8748C62.1097 31.8514 64.6746 31.536 67.208 31.9288C69.7645 32.2689 72.0476 33.1951 74.0572 34.7072C76.0669 36.2193 77.5571 38.2405 78.5278 40.7708C79.2522 42.659 79.6146 44.4508 79.6152 46.1462C79.6012 47.8037 79.2703 49.3689 78.6222 50.8416C77.9974 52.2617 77.1119 53.5671 75.9658 54.7579C74.8429 55.8961 73.523 56.9163 72.0063 57.8184C71.9455 57.8858 71.8847 57.9532 71.824 58.0207C71.8008 58.0733 71.8037 58.1373 71.8327 58.2129L72.6368 60.3088C73.0135 61.2907 73.0123 62.2476 72.6334 63.1796C72.2399 64.0737 71.554 64.7136 70.5756 65.0992C69.5971 65.4848 68.6649 65.4827 67.7789 65.0928C66.8784 64.6652 66.2398 63.9604 65.8631 62.9785L64.2115 58.6733ZM74.1833 75.3504C73.0919 75.7806 72.1366 75.831 71.3172 75.5019C70.5209 75.1201 69.9127 74.3816 69.4925 73.2864L69.1231 72.3234C68.703 71.2282 68.6665 70.2861 69.0136 69.4972C69.3839 68.6556 70.1147 68.0198 71.206 67.5897L71.9399 67.3004C73.0312 66.8703 73.975 66.8462 74.7712 67.2279C75.5907 67.5571 76.2104 68.2693 76.6306 69.3645L77 70.3275C77.4202 71.4227 77.4451 72.3911 77.0748 73.2326C76.7276 74.0216 76.0084 74.6311 74.9171 75.0612L74.1833 75.3504Z" fill="white"/>
<path d="M18.917 214.836C18.917 214.836 14.9444 192.717 27.3593 192.717C39.7747 192.717 36.0373 214.103 36.0373 214.103L18.917 214.836Z" fill="#4F6E59"/>
<path d="M37.2495 212.978H17.4702L18.4688 229.889H36.2515L37.2495 212.978Z" fill="#C85F64"/>
<path d="M26.442 193.502C26.4273 193.42 26.4097 193.34 26.3903 193.259C26.3462 193.074 26.2674 192.899 26.1875 192.728C26.1181 192.579 26.0459 192.432 25.9495 192.3C25.8925 192.221 25.8337 192.144 25.7731 192.068C25.7138 191.993 25.6574 191.942 25.5733 191.897C25.4276 191.818 25.2565 191.916 25.2506 192.084C25.2448 192.249 25.3059 192.399 25.3447 192.558C25.3823 192.712 25.4305 192.864 25.4681 193.019C25.5045 193.169 25.5304 193.322 25.5698 193.473C25.5892 193.548 25.6074 193.623 25.6233 193.699C25.6374 193.764 25.655 193.831 25.6897 193.889C25.7267 193.952 25.7761 194.002 25.8384 194.04C25.8666 194.053 25.8848 194.061 25.9007 194.067C26.0447 194.143 26.2404 194.118 26.3344 193.978C26.3374 193.976 26.335 193.978 26.3403 193.974C26.3427 193.971 26.3427 193.968 26.345 193.965C26.3497 193.957 26.3585 193.954 26.3621 193.946C26.3538 193.954 26.3532 193.955 26.3474 193.96C26.3932 193.91 26.4279 193.854 26.4461 193.788C26.4737 193.69 26.4596 193.6 26.442 193.502Z" fill="white"/>
<path d="M21.0764 196.763L21.0776 196.764C21.1058 196.776 21.1616 196.784 21.0764 196.763Z" fill="white"/>
<path d="M21.7882 197.18C21.7148 197.102 21.6372 197.037 21.5467 196.98C21.4961 196.947 21.4409 196.925 21.3856 196.903C21.4015 196.909 21.4103 196.913 21.3698 196.894C21.3515 196.886 21.3327 196.878 21.3145 196.869C21.2528 196.841 21.1917 196.812 21.1288 196.786C21.1112 196.778 21.0918 196.767 21.0729 196.763C21.0747 196.763 21.0741 196.763 21.0759 196.763C20.9977 196.728 20.9201 196.691 20.8437 196.651C20.5405 196.494 20.263 196.291 19.9686 196.118C19.7211 195.972 19.4126 196.267 19.5695 196.522C19.6753 196.694 19.7952 196.851 19.9462 196.984C20.1008 197.12 20.2642 197.247 20.4335 197.364C20.5798 197.465 20.7309 197.56 20.8937 197.631C20.9977 197.676 21.1117 197.737 21.2252 197.754C21.2939 197.765 21.3668 197.783 21.4362 197.781C21.5038 197.779 21.5743 197.761 21.6407 197.748C21.8975 197.696 21.951 197.353 21.7882 197.18Z" fill="white"/>
<path d="M26.1411 197.622C26.0347 197.428 25.8872 197.256 25.7355 197.097C25.6632 197.021 25.5933 196.938 25.514 196.869C25.4711 196.832 25.427 196.797 25.3829 196.761C25.3494 196.733 25.3159 196.703 25.2789 196.68C25.2536 196.664 25.159 196.626 25.2154 196.653C25.2606 196.674 25.2007 196.646 25.1966 196.644C25.0978 196.599 24.9967 196.594 24.9062 196.665C24.8204 196.732 24.7904 196.837 24.8128 196.943C24.8151 196.953 24.8163 196.963 24.8187 196.972C24.8192 196.975 24.8198 196.978 24.821 196.981C24.8145 196.926 24.8151 196.925 24.8222 196.98C24.8292 197.033 24.8451 197.075 24.8686 197.124C24.8915 197.171 24.9162 197.218 24.9403 197.266C24.9832 197.351 25.0385 197.428 25.0914 197.507C25.213 197.691 25.3382 197.879 25.4969 198.032C25.548 198.081 25.6004 198.127 25.658 198.168C25.7514 198.235 25.8707 198.25 25.9806 198.224C26.0988 198.196 26.1758 198.094 26.2087 197.982C26.2445 197.861 26.1998 197.728 26.1411 197.622Z" fill="white"/>
<path d="M19.9127 202.338C19.8163 202.248 19.6576 202.171 19.5324 202.136C19.4437 202.112 19.3567 202.118 19.2668 202.118C19.198 202.118 19.1292 202.115 19.0611 202.114C18.9341 202.111 18.806 202.127 18.679 202.127C18.6161 202.127 18.5527 202.12 18.4904 202.124C18.4475 202.127 18.3951 202.132 18.3552 202.142C18.3264 202.149 18.2999 202.159 18.2741 202.173C18.2705 202.174 18.2705 202.174 18.2652 202.176C18.1236 202.222 18.0766 202.395 18.1794 202.506C18.1988 202.528 18.2006 202.53 18.1865 202.512C18.2012 202.538 18.22 202.56 18.2423 202.578C18.2752 202.609 18.3205 202.64 18.3611 202.662C18.4298 202.699 18.5109 202.723 18.5838 202.749C18.7184 202.798 18.8571 202.847 18.9988 202.867C19.1569 202.888 19.3514 202.923 19.5083 202.885C19.6435 202.852 19.8263 202.759 19.9145 202.646C19.982 202.556 20.0056 202.425 19.9127 202.338Z" fill="white"/>
<path d="M24.6277 202.285C24.5707 202.191 24.4802 202.13 24.3914 202.07C24.3021 202.009 24.2104 201.951 24.1216 201.889C24.0329 201.828 23.9371 201.778 23.8442 201.724C23.7296 201.657 23.6109 201.614 23.4869 201.569C23.3776 201.529 23.2447 201.589 23.1789 201.676C23.1101 201.766 23.0919 201.906 23.156 202.006C23.2271 202.117 23.2982 202.223 23.3952 202.314C23.4963 202.408 23.5974 202.502 23.712 202.578C23.8043 202.64 23.8971 202.703 23.9935 202.759C24.0893 202.814 24.1869 202.861 24.2991 202.865C24.3926 202.869 24.4772 202.859 24.5636 202.815C24.6553 202.769 24.7235 202.647 24.717 202.544C24.7117 202.447 24.6771 202.366 24.6277 202.285Z" fill="white"/>
<path d="M22.4283 206.832L22.4277 206.833C22.4318 206.829 22.4318 206.828 22.4371 206.822C22.4348 206.826 22.4307 206.828 22.4283 206.832Z" fill="white"/>
<path d="M22.4212 206.843C22.4242 206.84 22.4254 206.836 22.4277 206.833C22.4095 206.853 22.4042 206.86 22.4212 206.843Z" fill="white"/>
<path d="M22.4277 206.464C22.4318 206.469 22.4318 206.469 22.4371 206.475C22.4195 206.452 22.4018 206.429 22.3842 206.405C22.3343 206.351 22.272 206.33 22.2067 206.302C22.1374 206.273 22.088 206.255 22.0063 206.251C21.8923 206.246 21.77 206.249 21.6583 206.27C21.5772 206.284 21.4967 206.302 21.4162 206.318C21.3962 206.323 21.3756 206.325 21.3557 206.331C21.3004 206.346 21.2528 206.375 21.2123 206.416C21.224 206.405 21.2363 206.396 21.2481 206.386C21.2446 206.395 21.2011 206.411 21.1917 206.417C21.1623 206.435 21.147 206.464 21.127 206.489C21.1247 206.491 21.1223 206.493 21.1194 206.495C21.0259 206.568 21.0159 206.672 21.0794 206.756C21.1135 206.822 21.1705 206.878 21.2399 206.906C21.261 206.919 21.2522 206.91 21.2123 206.881C21.2416 206.913 21.2763 206.936 21.3169 206.949C21.348 206.962 21.3733 206.969 21.4062 206.976C21.4903 206.993 21.5737 207.011 21.6583 207.027C21.7677 207.046 21.884 207.05 21.9951 207.046C22.0739 207.044 22.1285 207.027 22.1967 206.998C22.2537 206.974 22.3019 206.955 22.3495 206.918C22.383 206.896 22.4077 206.865 22.4283 206.831C22.52 206.731 22.52 206.564 22.4277 206.464Z" fill="white"/>
<path d="M19.9885 209.995C19.9509 209.906 19.8763 209.828 19.7787 209.805C19.6694 209.78 19.5718 209.773 19.4666 209.815C19.4061 209.839 19.345 209.861 19.2838 209.883C19.2121 209.909 19.144 209.944 19.074 209.974C19.0576 209.98 19.0411 209.988 19.0246 209.994C18.9835 210.011 18.9418 210.026 18.9012 210.044C18.836 210.072 18.7725 210.103 18.7079 210.132C18.7014 210.135 18.7026 210.134 18.6985 210.136C18.6861 210.141 18.6732 210.146 18.6608 210.151C18.635 210.162 18.6085 210.172 18.5821 210.182C18.4493 210.232 18.31 210.265 18.1848 210.334C17.9996 210.434 18.0508 210.72 18.2418 210.776C18.3781 210.816 18.5251 210.81 18.6655 210.805C18.8195 210.8 18.9806 210.79 19.1316 210.76C19.2803 210.729 19.4378 210.682 19.5736 210.615C19.7299 210.539 19.901 210.458 19.9727 210.288C20.0144 210.186 20.032 210.1 19.9885 209.995Z" fill="white"/>
<path d="M26.6031 209.591C26.6078 209.554 26.6037 209.519 26.5913 209.484C26.5966 209.437 26.5625 209.401 26.5161 209.407C26.4979 209.399 26.4808 209.388 26.4597 209.388C26.4462 209.39 26.4326 209.392 26.4191 209.394C26.4368 209.392 26.4368 209.392 26.4185 209.394C26.4415 209.401 26.465 209.407 26.4879 209.413C26.4144 209.382 26.3421 209.388 26.2646 209.407C26.194 209.425 26.13 209.444 26.0682 209.486C25.9818 209.545 25.8937 209.603 25.8032 209.656C25.715 209.709 25.6251 209.758 25.534 209.805C25.484 209.831 25.4382 209.855 25.3923 209.887C25.3265 209.933 25.253 209.975 25.1972 210.033C25.0826 210.151 25.0462 210.357 25.1373 210.502C25.2307 210.649 25.3982 210.722 25.5681 210.679C25.7209 210.641 25.8696 210.532 25.9877 210.433C26.0706 210.363 26.1505 210.29 26.2281 210.215C26.3039 210.141 26.3774 210.065 26.4485 209.986C26.4967 209.933 26.5343 209.88 26.5602 209.812C26.5678 209.792 26.5743 209.771 26.5813 209.75C26.6013 209.695 26.6072 209.643 26.6031 209.591Z" fill="white"/>
<path d="M28.5896 205.207C28.5731 205.192 28.5561 205.178 28.5379 205.165C28.5355 205.164 28.5337 205.163 28.5314 205.161C28.4479 205.116 28.3239 205.1 28.2422 205.161C28.2205 205.178 28.1976 205.194 28.1752 205.209C28.1429 205.222 28.1117 205.236 28.0829 205.258C28.0506 205.284 28.0218 205.312 27.9918 205.339C27.963 205.365 27.9325 205.39 27.9025 205.415C27.8202 205.475 27.735 205.531 27.6545 205.594L27.735 205.531C27.5593 205.669 27.3418 205.753 27.1984 205.928C27.1114 206.034 27.0756 206.159 27.1302 206.292C27.1531 206.347 27.1849 206.389 27.2313 206.426C27.2942 206.474 27.3518 206.487 27.4305 206.497C27.4758 206.503 27.5258 206.499 27.5716 206.496C27.6827 206.487 27.7785 206.442 27.8755 206.39C27.966 206.342 28.0536 206.288 28.1358 206.227C28.2405 206.15 28.328 206.059 28.4103 205.959C28.4585 205.9 28.5055 205.838 28.5502 205.776C28.5649 205.756 28.5808 205.735 28.5931 205.713C28.6195 205.667 28.6319 205.618 28.636 205.567C28.6454 205.541 28.6548 205.515 28.663 205.489C28.6924 205.397 28.6625 205.27 28.5896 205.207Z" fill="white"/>
<path d="M32.608 193.259C32.5975 193.206 32.6028 193.15 32.5892 193.097C32.5787 193.054 32.5598 192.999 32.5387 192.963C32.5081 192.91 32.4317 192.888 32.4235 192.83C32.4206 192.811 32.3965 192.814 32.3876 192.825C32.3812 192.834 32.3741 192.843 32.3677 192.852C32.2654 192.84 32.1737 192.896 32.1008 192.966C32.0373 193.026 31.9721 193.094 31.9221 193.166C31.8287 193.303 31.7582 193.45 31.6812 193.596C31.6059 193.738 31.5295 193.879 31.4537 194.021C31.4155 194.091 31.3797 194.164 31.3456 194.236C31.3021 194.329 31.2733 194.404 31.2703 194.507C31.2662 194.552 31.2703 194.596 31.2827 194.64C31.3232 194.748 31.3326 194.768 31.3115 194.697C31.362 194.824 31.4549 194.913 31.593 194.922C31.6101 194.924 31.6318 194.927 31.66 194.931C31.7305 194.931 31.7964 194.913 31.8575 194.877C31.9163 194.847 31.9686 194.809 32.0121 194.758C32.085 194.674 32.152 194.583 32.2096 194.488C32.3142 194.315 32.3941 194.139 32.4693 193.951C32.5346 193.789 32.5798 193.633 32.6057 193.459C32.6186 193.416 32.6221 193.372 32.6169 193.328C32.6127 193.298 32.6098 193.276 32.608 193.259Z" fill="white"/>
<path d="M31.6059 194.925C31.6012 194.925 31.5971 194.922 31.5924 194.922C31.5371 194.914 31.5406 194.915 31.6059 194.925Z" fill="white"/>
<path d="M36.3025 199.441C36.2102 199.369 36.0974 199.368 35.9951 199.419C35.9633 199.435 35.9293 199.448 35.8981 199.466C35.8634 199.485 35.8329 199.513 35.8017 199.537C35.8005 199.538 35.8017 199.537 35.8005 199.538C35.7465 199.582 35.6877 199.62 35.6307 199.66C35.5049 199.748 35.3803 199.835 35.2451 199.909C35.1146 199.98 34.9812 200.049 34.8466 200.111C34.8355 200.117 34.8237 200.121 34.8126 200.127C34.8114 200.127 34.8126 200.127 34.8108 200.127C34.7544 200.15 34.6991 200.174 34.6439 200.201C34.5381 200.252 34.4387 200.301 34.38 200.413C34.2983 200.568 34.3453 200.75 34.4916 200.845C34.6785 200.966 34.9436 200.882 35.137 200.809C35.3133 200.744 35.4796 200.668 35.6366 200.563C35.7853 200.465 35.9357 200.356 36.0639 200.23C36.1232 200.173 36.1773 200.108 36.2302 200.045C36.2731 199.993 36.3178 199.943 36.3436 199.88C36.3636 199.832 36.383 199.785 36.4006 199.737C36.44 199.632 36.3818 199.504 36.3025 199.441Z" fill="white"/>
<path d="M29.6517 199.041C29.6793 198.975 29.6193 198.918 29.5553 198.946C29.5512 198.948 29.5471 198.95 29.5429 198.952C29.503 198.949 29.463 198.953 29.4248 198.965C29.2932 198.969 29.1609 199.096 29.0704 199.174C28.9693 199.262 28.8947 199.383 28.8265 199.499C28.7571 199.617 28.7031 199.742 28.659 199.872C28.6055 200.027 28.612 200.197 28.6337 200.357C28.649 200.474 28.7806 200.561 28.8835 200.576C28.9987 200.591 29.1245 200.537 29.1827 200.43C29.2156 200.369 29.2573 200.304 29.2732 200.237C29.2761 200.229 29.279 200.223 29.2826 200.216C29.3031 200.169 29.3237 200.122 29.3396 200.073C29.3725 199.969 29.406 199.865 29.4448 199.763C29.4489 199.753 29.4524 199.743 29.4565 199.733C29.4665 199.713 29.4748 199.691 29.483 199.673C29.5147 199.605 29.5424 199.537 29.5659 199.466C29.5806 199.42 29.5976 199.376 29.6146 199.331C29.6235 199.309 29.6517 199.239 29.6487 199.25C29.6593 199.211 29.6564 199.173 29.6476 199.134C29.6493 199.123 29.6517 199.111 29.6534 199.098C29.654 199.08 29.6546 199.061 29.6517 199.041Z" fill="white"/>
<path d="M36.55 206.993C36.5759 206.997 36.6012 207.001 36.6265 207.004C36.6364 207.006 36.647 207.007 36.657 207.008C36.6218 207.003 36.5859 206.998 36.55 206.993Z" fill="white"/>
<path d="M36.8804 207.04C36.8763 207.039 36.7987 207.033 36.7981 207.03C36.8433 207.036 36.8527 207.038 36.8263 207.034C36.8134 207.032 36.8004 207.03 36.7875 207.028C36.734 207.02 36.6805 207.012 36.6271 207.005C36.5648 206.995 36.503 206.983 36.4402 206.984C36.3896 206.984 36.3391 206.987 36.2885 206.987C36.1921 206.987 36.0951 206.983 35.9993 206.975C35.7731 206.958 35.4433 206.97 35.3123 207.19C35.3399 207.162 35.3669 207.135 35.394 207.107C35.3769 207.117 35.3593 207.127 35.3423 207.137C35.2635 207.181 35.2312 207.297 35.2805 207.375C35.2882 207.387 35.2958 207.398 35.3029 207.409C35.3152 207.447 35.3328 207.481 35.3646 207.52C35.3793 207.537 35.394 207.557 35.4098 207.573C35.481 207.645 35.5862 207.696 35.679 207.731C35.826 207.787 35.9811 207.802 36.1369 207.815C36.2926 207.828 36.4513 207.839 36.6053 207.808C36.7299 207.783 36.8492 207.739 36.9674 207.692C37.1213 207.632 37.2248 207.503 37.2019 207.328C37.1789 207.153 37.0449 207.058 36.8804 207.04Z" fill="white"/>
<path d="M37.3023 210.975C37.3087 210.981 37.3152 210.988 37.3217 210.994C37.3187 210.973 37.3017 210.957 37.2899 210.938C37.2841 210.929 37.2817 210.92 37.2746 210.911C37.2435 210.875 37.2041 210.845 37.1636 210.835C37.0278 210.799 36.8903 210.776 36.7527 210.746C36.6593 210.726 36.5699 210.705 36.4747 210.693C36.4565 210.69 36.4512 210.69 36.4495 210.69C36.4448 210.689 36.4442 210.689 36.433 210.687C36.3989 210.682 36.3648 210.676 36.3307 210.671C36.1732 210.647 36.0087 210.627 35.85 210.62C35.7818 210.617 35.7118 210.609 35.6437 210.614C35.5532 210.618 35.465 210.659 35.3745 210.673C35.2828 210.687 35.2111 210.791 35.2011 210.877C35.1893 210.978 35.2334 211.065 35.3163 211.121C35.3345 211.134 35.3533 211.146 35.3715 211.159C35.4021 211.177 35.4092 211.182 35.3927 211.174C35.378 211.167 35.3827 211.173 35.4068 211.192C35.4303 211.219 35.4579 211.239 35.4897 211.252C35.5684 211.296 35.666 211.32 35.753 211.344C35.9105 211.387 36.0856 211.408 36.2485 211.415C36.5517 211.429 36.8773 211.38 37.1636 211.276C37.2582 211.241 37.3293 211.162 37.3293 211.055C37.3293 211.026 37.3129 211.001 37.3023 210.975Z" fill="white"/>
<path d="M32.4933 208.299C32.4809 208.303 32.468 208.306 32.4556 208.31C32.4086 208.307 32.3622 208.309 32.3163 208.327C32.2758 208.341 32.2358 208.357 32.1953 208.372C32.0901 208.411 31.9925 208.457 31.8949 208.512C31.8579 208.533 31.8191 208.553 31.7838 208.576C31.7221 208.615 31.6657 208.667 31.6087 208.713C31.517 208.786 31.4177 208.853 31.3519 208.951C31.3295 208.985 31.3095 209.021 31.289 209.055C31.229 209.153 31.1985 209.259 31.2261 209.374C31.2608 209.519 31.4059 209.621 31.5493 209.621C31.6163 209.621 31.6804 209.597 31.7427 209.576C31.7615 209.569 31.7803 209.564 31.7991 209.557C31.8638 209.534 31.9108 209.509 31.9637 209.468C32.0113 209.43 32.0589 209.393 32.1059 209.355C32.1759 209.299 32.2493 209.246 32.3099 209.18C32.3933 209.088 32.4768 209 32.545 208.896C32.5708 208.857 32.5967 208.817 32.6231 208.778C32.6561 208.728 32.676 208.676 32.6872 208.62C32.6943 208.608 32.7019 208.595 32.709 208.583C32.793 208.441 32.6531 208.248 32.4933 208.299Z" fill="white"/>
<path d="M32.9035 203.884C32.8994 203.859 32.8988 203.853 32.9017 203.865C32.9006 203.878 32.9053 203.844 32.9053 203.844C32.9129 203.763 32.8247 203.713 32.7572 203.729C32.7483 203.732 32.7389 203.735 32.7301 203.736C32.7395 203.735 32.7266 203.733 32.7225 203.733C32.6884 203.735 32.6596 203.745 32.6279 203.757C32.5932 203.77 32.5585 203.782 32.5238 203.795C32.4027 203.843 32.284 203.92 32.1835 204.002C32.1118 204.059 32.0407 204.118 31.9696 204.176C31.8732 204.255 31.8027 204.36 31.7327 204.461C31.6781 204.541 31.6634 204.685 31.6922 204.775C31.7198 204.861 31.765 204.931 31.8362 204.986C31.9972 205.113 32.2147 205.093 32.3634 204.955C32.4515 204.873 32.535 204.782 32.5967 204.677C32.6443 204.597 32.6937 204.517 32.7395 204.436C32.7607 204.398 32.776 204.355 32.7924 204.315C32.8171 204.255 32.8494 204.195 32.8653 204.133C32.8753 204.093 32.8823 204.053 32.8912 204.014C32.8982 203.981 32.9076 203.947 32.907 203.914C32.907 203.903 32.9059 203.893 32.9035 203.884Z" fill="white"/>
<path d="M17.7375 217.498C17.8427 217.422 17.9508 217.35 18.0666 217.29C18.6332 216.995 19.1733 217.002 19.7293 217.316C20.3453 217.662 20.8889 218.119 21.6383 218.016C23.1465 217.808 23.8112 215.851 25.5098 216.415C26.7928 216.842 28.0188 218.069 29.4312 217.331C30.2693 216.893 30.753 216.145 31.8015 216.463C32.5938 216.703 33.2638 217.241 34.0426 217.521C35.0318 217.876 35.9334 217.567 36.9008 217.302C36.9314 217.294 36.9643 217.286 36.996 217.279L37.0395 216.541C36.7932 216.594 36.5458 216.661 36.2972 216.733C35.7047 216.905 35.0888 217.086 34.4711 216.943C33.9762 216.828 33.5207 216.582 33.0722 216.348C32.3846 215.989 31.6417 215.608 30.8453 215.768C29.9443 215.95 29.3942 216.959 28.4455 216.94C27.5998 216.922 26.831 216.305 26.0787 215.979C25.4104 215.689 24.7098 215.557 24.0193 215.848C23.2546 216.169 22.7521 216.879 22.0315 217.266C20.9301 217.856 20.1678 216.622 19.1163 216.505C18.6667 216.455 18.1542 216.597 17.7004 216.849L17.7375 217.498Z" fill="white"/>
<path d="M36.9132 218.673C36.4724 218.675 36.0428 218.734 35.7095 218.824C35.1812 218.966 34.6457 219.158 34.0921 219.152C33.5725 219.147 33.1241 218.905 32.6703 218.676C31.9886 218.333 31.2697 218.02 30.5116 218.31C29.6828 218.626 29.1592 219.62 28.1735 219.392C27.366 219.205 26.72 218.588 25.8931 218.437C24.2915 218.147 23.4005 219.71 21.9993 220.08C20.999 220.344 20.1444 219.39 19.1258 219.418C18.6856 219.43 18.2454 219.554 17.8716 219.78L17.9068 220.377C18.4587 220.046 19.0841 219.877 19.7382 220.083C20.4688 220.314 21.0278 220.828 21.8371 220.747C23.1613 220.615 23.9976 219.259 25.2953 219.11C26.7059 218.949 27.7445 220.642 29.2215 220.013C29.9273 219.713 30.4504 218.859 31.2797 218.943C32.0338 219.018 32.6674 219.603 33.3886 219.814C34.3589 220.098 35.3017 219.734 36.2479 219.531C36.4489 219.487 36.6593 219.46 36.8668 219.457L36.9132 218.673Z" fill="white"/>
</svg>
