        <svg
          xmlns="http://www.w3.org/2000/svg"
          viewBox="0 0 1440 320"
          className="w-full h-full"
          preserveAspectRatio="none"
        >
          <path
            fill="#8800FF"
            d="M0,160L48,186.7C96,213,192,267,288,256C384,245,480,171,576,138.7C672,107,768,117,864,149.3C960,181,1056,235,1152,240C1248,245,1344,203,1392,181.3L1440,160L1440,320L1392,320C1344,320,1248,320,1152,320C1056,320,960,320,864,320C768,320,672,320,576,320C480,320,384,320,288,320C192,320,96,320,48,320L0,320Z"
          ></path>
        </svg>