<svg width="39" height="19" viewBox="0 0 39 19" fill="none" xmlns="http://www.w3.org/2000/svg">
<g clip-path="url(#clip0_2591_1739)">
<path d="M29.5256 11.74C28.6852 11.74 27.7609 11.74 26.9206 11.74C19.5259 11.6563 12.0472 11.4889 4.65251 11.4052C3.81221 11.4052 3.05593 11.4052 2.21562 11.3215C1.12323 11.2378 -0.22126 10.9867 0.0308314 9.56375C0.114862 8.97784 1.37532 8.30823 2.1316 8.22453C8.34986 7.88972 14.4841 7.63862 20.7023 7.38751C22.1309 7.30381 23.5594 7.38751 25.0719 6.6342C23.3913 5.62978 21.6267 4.79276 20.0301 3.70464C19.2738 3.20243 18.4335 1.94691 18.6016 1.1936C18.9377 -0.313032 20.6183 -0.145628 21.6267 0.356581C26.6685 2.53282 31.7944 4.70906 36.6682 7.30381C39.7773 8.97784 39.7773 11.4889 36.6682 13.1629C32.5507 15.4229 28.097 17.0969 23.8115 18.9383C23.3073 19.1894 22.467 18.6035 21.7947 18.4361C22.0468 17.7665 22.0468 16.7621 22.551 16.4273C23.5594 15.5903 24.9039 15.0881 26.0803 14.4184C27.3408 13.7488 28.6012 13.0792 29.7776 12.4096C29.6096 12.2422 29.5256 11.9911 29.5256 11.74Z" fill="#6F00FF"/>
</g>
<defs>
<clipPath id="clip0_2591_1739">
<rect width="19" height="39" fill="white" transform="matrix(0 -1 1 0 0 19)"/>
</clipPath>
</defs>
</svg>
